<svg width="280" height="89" viewBox="0 0 280 89" fill="none" xmlns="http://www.w3.org/2000/svg">
<rect width="280" height="89" fill="#14213D"/>
<path d="M24.4516 63.55H21.4016C18.0349 63.55 15.0682 63.1667 12.5016 62.4C9.9349 61.6333 7.91823 60.6833 6.45156 59.55C5.01823 58.3833 3.8349 57.0167 2.90156 55.45C2.00156 53.85 1.40156 52.3833 1.10156 51.05C0.834896 49.6833 0.701563 48.2667 0.701563 46.8V46.5H14.6516C15.0849 50.7667 17.8182 52.9 22.8516 52.9H23.2516C26.1182 52.9 28.2016 52.15 29.5016 50.65C30.8349 49.15 31.5016 47.1167 31.5016 44.55V25.8H45.7016V44.85C45.7016 46.0833 45.6349 47.25 45.5016 48.35C45.3682 49.45 45.1016 50.65 44.7016 51.95C44.3016 53.2167 43.7849 54.4 43.1516 55.5C42.5182 56.5667 41.6516 57.6167 40.5516 58.65C39.4516 59.65 38.1682 60.5 36.7016 61.2C35.2682 61.9 33.5016 62.4667 31.4016 62.9C29.3016 63.3333 26.9849 63.55 24.4516 63.55Z" fill="#FC5130"/>
<path d="M77.8137 63.75H74.1137C70.8137 63.75 67.9137 63.45 65.4137 62.85C62.9137 62.2167 60.9303 61.45 59.4637 60.55C58.0303 59.6167 56.8637 58.5 55.9637 57.2C55.0637 55.9 54.4637 54.6667 54.1637 53.5C53.8637 52.3333 53.7137 51.1 53.7137 49.8V49C53.7137 47.7333 53.8637 46.5333 54.1637 45.4C54.4637 44.2333 55.047 43.0167 55.9137 41.75C56.8137 40.4833 57.9803 39.4 59.4137 38.5C60.847 37.6 62.8137 36.85 65.3137 36.25C67.847 35.65 70.7637 35.35 74.0637 35.35H77.8637C91.397 35.35 98.1637 39.8833 98.1637 48.95V49.85C98.1637 51.1833 98.047 52.4167 97.8137 53.55C97.5803 54.65 97.0303 55.8667 96.1637 57.2C95.3303 58.5333 94.2137 59.65 92.8137 60.55C91.4137 61.45 89.4303 62.2167 86.8637 62.85C84.297 63.45 81.2803 63.75 77.8137 63.75ZM76.0137 42.95H75.9637C72.897 42.95 70.7137 43.5667 69.4137 44.8C68.147 46 67.5137 47.4833 67.5137 49.25V49.45C67.5137 51.25 68.147 52.8167 69.4137 54.15C70.7137 55.45 72.897 56.1 75.9637 56.1H76.0137C79.0137 56.1 81.1637 55.4333 82.4637 54.1C83.7637 52.7333 84.4137 51.1833 84.4137 49.45V49.25C84.4137 47.4833 83.7637 46 82.4637 44.8C81.197 43.5667 79.047 42.95 76.0137 42.95ZM119.702 63H106.102V36.1H119.602V40.9C123.202 37.3 127.652 35.5 132.952 35.5H133.252C138.618 35.5 142.318 37.35 144.352 41.05C148.318 37.35 153.018 35.5 158.452 35.5H158.802C161.068 35.5 163.052 35.8333 164.752 36.5C166.452 37.1333 167.752 37.9833 168.652 39.05C169.552 40.1167 170.202 41.2167 170.602 42.35C171.035 43.45 171.252 44.5667 171.252 45.7V63H157.652V50.1C157.652 46 155.802 43.95 152.102 43.95C150.035 43.95 148.418 44.5667 147.252 45.8C146.085 47 145.502 48.55 145.502 50.45V63H131.852V50.1C131.852 46 130.002 43.95 126.302 43.95C124.235 43.95 122.618 44.5667 121.452 45.8C120.285 47 119.702 48.55 119.702 50.45V63ZM204.243 51.45V50.3L195.243 51.9C194.043 52.1 193.193 52.3667 192.693 52.7C192.193 53.0333 191.943 53.5333 191.943 54.2V54.25C191.943 55.0167 192.26 55.6667 192.893 56.2C193.56 56.7333 194.66 57 196.193 57C198.593 57 200.527 56.45 201.993 55.35C203.493 54.2167 204.243 52.9167 204.243 51.45ZM204.493 59.4C201.76 62.1333 197.56 63.5 191.893 63.5H191.343C187.143 63.5 184.01 62.6667 181.943 61C179.91 59.3333 178.893 57.2833 178.893 54.85V54.25C178.893 51.9167 179.727 50.1167 181.393 48.85C183.093 47.55 185.893 46.75 189.793 46.45L202.743 45.3C203.743 45.1667 204.243 44.7333 204.243 44C204.243 43.6 204.127 43.2667 203.893 43C203.693 42.7333 203.143 42.5 202.243 42.3C201.343 42.0667 200.06 41.95 198.393 41.95H198.193C196.86 41.95 195.743 42.05 194.843 42.25C193.977 42.4167 193.36 42.6833 192.993 43.05C192.66 43.4167 192.443 43.7 192.343 43.9C192.277 44.0667 192.21 44.3333 192.143 44.7H179.543V44.4C179.543 43.5 179.61 42.7167 179.743 42.05C179.91 41.3833 180.327 40.6 180.993 39.7C181.66 38.8 182.56 38.0667 183.693 37.5C184.86 36.9333 186.56 36.45 188.793 36.05C191.06 35.6167 193.727 35.4 196.793 35.4H199.593C202.793 35.4 205.56 35.6 207.893 36C210.227 36.3667 211.993 36.8333 213.193 37.4C214.393 37.9333 215.343 38.6333 216.043 39.5C216.743 40.3333 217.16 41.0833 217.293 41.75C217.46 42.3833 217.543 43.15 217.543 44.05V54C217.543 54.7667 217.927 55.15 218.693 55.15H220.143V63H208.843C206.343 63 204.893 61.8 204.493 59.4ZM240.979 36.1V41.05C241.479 40.3167 242.095 39.6 242.829 38.9C243.595 38.1667 244.845 37.4167 246.579 36.65C248.312 35.8833 250.195 35.5 252.229 35.5H252.829C254.962 35.5 256.795 35.85 258.329 36.55C259.862 37.2167 261.029 38.15 261.829 39.35C262.629 40.5167 263.212 41.7667 263.579 43.1C263.945 44.4 264.129 45.8333 264.129 47.4V50.1H250.929V49.15C250.929 47.5167 250.529 46.2 249.729 45.2C248.962 44.1667 247.745 43.65 246.079 43.65C244.512 43.65 243.279 44.1833 242.379 45.25C241.512 46.3167 241.079 47.7167 241.079 49.45V63H227.479V36.1H240.979ZM278.111 53.25V63H264.011V53.25H278.111Z" fill="white"/>
</svg>
