<svg width="196" height="70" viewBox="0 0 196 70" fill="none" xmlns="http://www.w3.org/2000/svg">
<path d="M17.1161 48.385H14.9811C12.6244 48.385 10.5478 48.1167 8.75109 47.58C6.95443 47.0433 5.54276 46.3783 4.51609 45.585C3.51276 44.7683 2.68443 43.8117 2.03109 42.715C1.40109 41.595 0.981094 40.5683 0.771094 39.635C0.584427 38.6783 0.491094 37.6867 0.491094 36.66V36.45H10.2561C10.5594 39.4367 12.4728 40.93 15.9961 40.93H16.2761C18.2828 40.93 19.7411 40.405 20.6511 39.355C21.5844 38.305 22.0511 36.8817 22.0511 35.085V21.96H31.9911V35.295C31.9911 36.1583 31.9444 36.975 31.8511 37.745C31.7578 38.515 31.5711 39.355 31.2911 40.265C31.0111 41.1517 30.6494 41.98 30.2061 42.75C29.7628 43.4967 29.1561 44.2317 28.3861 44.955C27.6161 45.655 26.7178 46.25 25.6911 46.74C24.6878 47.23 23.4511 47.6267 21.9811 47.93C20.5111 48.2333 18.8894 48.385 17.1161 48.385Z" fill="#FC5130"/>
<path d="M54.4696 48.525H51.8796C49.5696 48.525 47.5396 48.315 45.7896 47.895C44.0396 47.4517 42.6512 46.915 41.6246 46.285C40.6212 45.6317 39.8046 44.85 39.1746 43.94C38.5446 43.03 38.1246 42.1667 37.9146 41.35C37.7046 40.5333 37.5996 39.67 37.5996 38.76V38.2C37.5996 37.3133 37.7046 36.4733 37.9146 35.68C38.1246 34.8633 38.5329 34.0117 39.1396 33.125C39.7696 32.2383 40.5862 31.48 41.5896 30.85C42.5929 30.22 43.9696 29.695 45.7196 29.275C47.4929 28.855 49.5346 28.645 51.8446 28.645H54.5046C63.9779 28.645 68.7146 31.8183 68.7146 38.165V38.795C68.7146 39.7283 68.6329 40.5917 68.4696 41.385C68.3062 42.155 67.9212 43.0067 67.3146 43.94C66.7312 44.8733 65.9496 45.655 64.9696 46.285C63.9896 46.915 62.6012 47.4517 60.8046 47.895C59.0079 48.315 56.8962 48.525 54.4696 48.525ZM53.2096 33.965H53.1746C51.0279 33.965 49.4996 34.3967 48.5896 35.26C47.7029 36.1 47.2596 37.1383 47.2596 38.375V38.515C47.2596 39.775 47.7029 40.8717 48.5896 41.805C49.4996 42.715 51.0279 43.17 53.1746 43.17H53.2096C55.3096 43.17 56.8146 42.7033 57.7246 41.77C58.6346 40.8133 59.0896 39.7283 59.0896 38.515V38.375C59.0896 37.1383 58.6346 36.1 57.7246 35.26C56.8379 34.3967 55.3329 33.965 53.2096 33.965ZM83.7911 48H74.2711V29.17H83.7211V32.53C86.2411 30.01 89.3561 28.75 93.0661 28.75H93.2761C97.0328 28.75 99.6228 30.045 101.046 32.635C103.823 30.045 107.113 28.75 110.916 28.75H111.161C112.748 28.75 114.136 28.9833 115.326 29.45C116.516 29.8933 117.426 30.4883 118.056 31.235C118.686 31.9817 119.141 32.7517 119.421 33.545C119.724 34.315 119.876 35.0967 119.876 35.89V48H110.356V38.97C110.356 36.1 109.061 34.665 106.471 34.665C105.024 34.665 103.893 35.0967 103.076 35.96C102.259 36.8 101.851 37.885 101.851 39.215V48H92.2961V38.97C92.2961 36.1 91.0011 34.665 88.4111 34.665C86.9644 34.665 85.8328 35.0967 85.0161 35.96C84.1994 36.8 83.7911 37.885 83.7911 39.215V48ZM142.97 39.915V39.11L136.67 40.23C135.83 40.37 135.235 40.5567 134.885 40.79C134.535 41.0233 134.36 41.3733 134.36 41.84V41.875C134.36 42.4117 134.582 42.8667 135.025 43.24C135.492 43.6133 136.262 43.8 137.335 43.8C139.015 43.8 140.369 43.415 141.395 42.645C142.445 41.8517 142.97 40.9417 142.97 39.915ZM143.145 45.48C141.232 47.3933 138.292 48.35 134.325 48.35H133.94C131 48.35 128.807 47.7667 127.36 46.6C125.937 45.4333 125.225 43.9983 125.225 42.295V41.875C125.225 40.2417 125.809 38.9817 126.975 38.095C128.165 37.185 130.125 36.625 132.855 36.415L141.92 35.61C142.62 35.5167 142.97 35.2133 142.97 34.7C142.97 34.42 142.889 34.1867 142.725 34C142.585 33.8133 142.2 33.65 141.57 33.51C140.94 33.3467 140.042 33.265 138.875 33.265H138.735C137.802 33.265 137.02 33.335 136.39 33.475C135.784 33.5917 135.352 33.7783 135.095 34.035C134.862 34.2917 134.71 34.49 134.64 34.63C134.594 34.7467 134.547 34.9333 134.5 35.19H125.68V34.98C125.68 34.35 125.727 33.8017 125.82 33.335C125.937 32.8683 126.229 32.32 126.695 31.69C127.162 31.06 127.792 30.5467 128.585 30.15C129.402 29.7533 130.592 29.415 132.155 29.135C133.742 28.8317 135.609 28.68 137.755 28.68H139.715C141.955 28.68 143.892 28.82 145.525 29.1C147.159 29.3567 148.395 29.6833 149.235 30.08C150.075 30.4533 150.74 30.9433 151.23 31.55C151.72 32.1333 152.012 32.6583 152.105 33.125C152.222 33.5683 152.28 34.105 152.28 34.735V41.7C152.28 42.2367 152.549 42.505 153.085 42.505H154.1V48H146.19C144.44 48 143.425 47.16 143.145 45.48ZM168.685 29.17V32.635C169.035 32.1217 169.467 31.62 169.98 31.13C170.517 30.6167 171.392 30.0917 172.605 29.555C173.818 29.0183 175.137 28.75 176.56 28.75H176.98C178.473 28.75 179.757 28.995 180.83 29.485C181.903 29.9517 182.72 30.605 183.28 31.445C183.84 32.2617 184.248 33.1367 184.505 34.07C184.762 34.98 184.89 35.9833 184.89 37.08V38.97H175.65V38.305C175.65 37.1617 175.37 36.24 174.81 35.54C174.273 34.8167 173.422 34.455 172.255 34.455C171.158 34.455 170.295 34.8283 169.665 35.575C169.058 36.3217 168.755 37.3017 168.755 38.515V48H159.235V29.17H168.685ZM194.678 41.175V48H184.808V41.175H194.678Z" fill="white"/>
</svg>
